<?xml version="1.0" encoding="UTF-8"?>
<svg width="500px" height="500px" viewBox="0 0 500 500" xmlns="http://www.w3.org/2000/svg" xmlns:xlink="http://www.w3.org/1999/xlink" version="1.1">
 <!-- Generated by Pixelmator Pro 2.1.5 -->
 <path id="Rectangle" d="M0 500 L500 500 500 0 0 0 Z" fill="#f24405" fill-opacity="1" stroke="none"/>
 <path id="yo." d="M404.757 309.78 C398.299 309.78 392.807 307.516 388.279 302.988 383.751 298.46 381.487 292.967 381.487 286.51 381.487 280.132 383.751 274.678 388.279 270.15 392.807 265.622 398.299 263.359 404.757 263.359 411.135 263.359 416.588 265.622 421.116 270.15 425.644 274.678 427.908 280.132 427.908 286.51 427.908 292.967 425.644 298.46 421.116 302.988 416.588 307.516 411.135 309.78 404.757 309.78 Z M290.652 308.953 C276.478 308.953 264.016 306.197 253.267 300.685 242.518 295.172 234.132 287.495 228.107 277.651 222.083 267.808 219.071 256.389 219.071 243.396 219.071 230.403 222.083 218.985 228.107 209.141 234.132 199.298 242.518 191.64 253.267 186.167 264.016 180.694 276.478 177.957 290.652 177.957 304.827 177.957 317.288 180.694 328.037 186.167 338.786 191.64 347.173 199.298 353.197 209.141 359.221 218.985 362.233 230.403 362.233 243.396 362.233 256.389 359.221 267.808 353.197 277.651 347.173 287.495 338.786 295.172 328.037 300.685 317.288 306.197 304.827 308.953 290.652 308.953 Z M290.652 272.926 C295.535 272.926 299.708 271.706 303.173 269.265 306.638 266.823 309.296 263.398 311.146 258.988 312.997 254.578 313.922 249.381 313.922 243.396 313.922 237.411 312.997 232.234 311.146 227.863 309.296 223.493 306.638 220.107 303.173 217.705 299.708 215.303 295.535 214.102 290.652 214.102 285.849 214.102 281.695 215.303 278.191 217.705 274.686 220.107 272.009 223.493 270.158 227.863 268.308 232.234 267.383 237.411 267.383 243.396 267.383 249.381 268.308 254.578 270.158 258.988 272.009 263.398 274.686 266.823 278.191 269.265 281.695 271.706 285.849 272.926 290.652 272.926 Z M104.731 361.162 C100.242 361.162 96.285 361.024 92.86 360.749 89.434 360.473 87.288 360.178 86.422 359.863 L86.422 325.372 C87.446 325.844 89.296 326.199 91.974 326.435 94.651 326.671 97.604 326.789 100.833 326.789 103.983 326.789 106.975 326.199 109.81 325.017 112.645 323.836 115.145 322.123 117.311 319.879 119.476 317.635 121.11 314.859 122.213 311.552 L123.276 308.362 80.044 180.556 129.654 180.556 149 269 149 269 167.807 180.556 216.709 180.556 175.603 309.189 C171.902 320.686 167.335 330.293 161.901 338.011 156.467 345.728 149.242 351.516 140.226 355.374 131.209 359.233 119.378 361.162 104.731 361.162 Z" fill="#ffffff" fill-opacity="1" stroke="none"/>
</svg>
