<?xml version="1.0" standalone="no"?>
<!DOCTYPE svg PUBLIC "-//W3C//DTD SVG 20010904//EN"
 "http://www.w3.org/TR/2001/REC-SVG-20010904/DTD/svg10.dtd">
<svg version="1.0" xmlns="http://www.w3.org/2000/svg"
 width="500.000000pt" height="500.000000pt" viewBox="0 0 500.000000 500.000000"
 preserveAspectRatio="xMidYMid meet">
<metadata>
Created by potrace 1.14, written by Peter Selinger 2001-2017
</metadata>
<g transform="translate(0.000000,500.000000) scale(0.100000,-0.100000)"
fill="#000000" stroke="none">
<path d="M0 2500 l0 -2500 2500 0 2500 0 0 2500 0 2500 -2500 0 -2500 0 0
-2500z m3300 735 c120 -32 225 -91 309 -174 88 -87 132 -164 161 -277 38 -148
20 -356 -40 -474 -83 -162 -234 -279 -429 -332 -110 -31 -333 -30 -445 0 -245
67 -415 233 -472 462 -19 75 -21 237 -5 320 19 97 86 217 165 296 101 101 208
156 366 190 85 18 301 12 390 -11z m-1739 -430 c52 -234 96 -425 99 -425 3 0
46 191 95 425 l90 425 243 0 c133 0 242 -3 242 -6 0 -4 -95 -304 -211 -668
-244 -767 -276 -846 -388 -956 -119 -118 -233 -158 -467 -167 -78 -3 -162 -3
-188 1 l-46 7 0 170 0 171 74 -7 c102 -10 163 6 220 56 26 23 51 57 61 82 l16
42 -215 638 -215 637 248 0 248 0 94 -425z m2754 -420 c47 -19 91 -61 114
-108 25 -51 28 -141 8 -190 -77 -183 -333 -192 -422 -14 -40 81 -29 181 27
247 66 79 176 105 273 65z"/>
<path d="M3016 2890 c-55 -17 -105 -61 -133 -119 -25 -51 -28 -66 -28 -166 0
-91 4 -118 21 -156 70 -151 243 -185 356 -69 54 56 68 94 75 205 7 112 -14
182 -76 245 -61 64 -134 84 -215 60z"/>
</g>
</svg>
